<svg width="48" height="48" viewBox="0 0 48 48" fill="none" xmlns="http://www.w3.org/2000/svg">
    <path clip-rule="evenodd" d="M42.42 15.798V32.1c0 6.04-3.78 10.3-9.82 10.3H15.3c-6.04 0-9.8-4.26-9.8-10.3V15.798C5.5 9.758 9.28 5.5 15.3 5.5h17.3c6.04 0 9.82 4.258 9.82 10.298z" stroke="#D1D5DA" stroke-width="2" stroke-linecap="round" stroke-linejoin="round"/>
    <path d="m10.563 32.862 3.055-3.226a2.802 2.802 0 0 1 3.96-.12c.035.034 1.875 1.904 1.875 1.904a2.868 2.868 0 0 0 4.053.04c.075-.072 4.668-5.644 4.668-5.644a3.373 3.373 0 0 1 4.75-.458c.096.08 4.437 4.534 4.437 4.534" stroke="#D1D5DA" stroke-width="2" stroke-linecap="round" stroke-linejoin="round"/>
    <path clip-rule="evenodd" d="M20.625 18.266a3.507 3.507 0 1 1-7.016 0 3.507 3.507 0 1 1 7.016 0z" stroke="#D1D5DA" stroke-width="2" stroke-linecap="round" stroke-linejoin="round"/>
</svg>
